<?xml version="1.0" encoding="utf-8" standalone="no"?>
<!DOCTYPE svg PUBLIC "-//W3C//DTD SVG 1.1//EN"
  "http://www.w3.org/Graphics/SVG/1.1/DTD/svg11.dtd">
<svg xmlns:xlink="http://www.w3.org/1999/xlink" width="410.795469pt" height="312.545281pt" viewBox="0 0 410.795469 312.545281" xmlns="http://www.w3.org/2000/svg" version="1.1">
 <metadata>
  <rdf:RDF xmlns:dc="http://purl.org/dc/elements/1.1/" xmlns:cc="http://creativecommons.org/ns#" xmlns:rdf="http://www.w3.org/1999/02/22-rdf-syntax-ns#">
   <cc:Work>
    <dc:type rdf:resource="http://purl.org/dc/dcmitype/StillImage"/>
    <dc:date>2025-11-06T17:04:48.013101</dc:date>
    <dc:format>image/svg+xml</dc:format>
    <dc:creator>
     <cc:Agent>
      <dc:title>Matplotlib v3.10.7, https://matplotlib.org/</dc:title>
     </cc:Agent>
    </dc:creator>
   </cc:Work>
  </rdf:RDF>
 </metadata>
 <defs>
  <style type="text/css">*{stroke-linejoin: round; stroke-linecap: butt}</style>
 </defs>
 <g id="figure_1">
  <g id="patch_1">
   <path d="M 0 312.545281 
L 410.795469 312.545281 
L 410.795469 0 
L 0 0 
L 0 312.545281 
z
" style="fill: none"/>
  </g>
  <g id="axes_1">
   <g id="patch_2">
    <path d="M 46.475469 305.345281 
L 403.595469 305.345281 
L 403.595469 305.345281 
L 403.595469 39.233281 
L 403.595469 39.233281 
L 46.475469 39.233281 
L 46.475469 39.233281 
L 46.475469 305.345281 
" style="fill: #ffffff; stroke: #ffffff; stroke-linejoin: miter"/>
   </g>
   <g id="patch_3">
    <path d="M 224.229533 171.29744 
L 224.678298 171.316389 
L 225.125772 171.337983 
L 225.571935 171.36222 
L 226.016771 171.389099 
L 226.46026 171.418618 
L 226.902385 171.450774 
L 227.343128 171.485566 
L 227.782471 171.522991 
L 228.220396 171.563047 
L 228.656886 171.60573 
L 229.091923 171.651039 
L 229.525491 171.69897 
L 229.957572 171.74952 
L 230.388149 171.802686 
L 230.817206 171.858464 
L 231.244725 171.916852 
L 231.67069 171.977845 
L 232.095085 172.04144 
L 232.517894 172.107632 
L 232.939099 172.176419 
L 233.358686 172.247794 
L 233.776637 172.321755 
L 234.192939 172.398296 
L 234.607574 172.477414 
L 235.020527 172.559102 
L 235.431783 172.643357 
L 235.841327 172.730173 
L 236.249144 172.819545 
L 236.655218 172.911468 
L 237.059535 173.005936 
L 237.46208 173.102944 
L 237.862839 173.202486 
L 238.261796 173.304557 
L 238.658939 173.409149 
L 239.054252 173.516258 
L 239.447722 173.625876 
L 239.839335 173.737998 
L 240.229077 173.852617 
L 240.616934 173.969727 
L 241.002893 174.08932 
L 241.386941 174.21139 
L 241.769064 174.335929 
L 242.149249 174.462932 
L 242.527484 174.592389 
L 242.903755 174.724295 
L 243.27805 174.858641 
L 243.650357 174.995421 
L 244.020662 175.134625 
L 244.388953 175.276247 
L 244.75522 175.420278 
L 245.119448 175.566711 
L 245.481627 175.715536 
L 245.841745 175.866747 
L 246.19979 176.020333 
L 246.55575 176.176288 
L 246.909615 176.334602 
L 247.261373 176.495266 
L 247.611012 176.658271 
L 247.958523 176.82361 
L 248.303893 176.991271 
L 248.647113 177.161247 
L 248.988171 177.333528 
L 249.327058 177.508105 
L 249.663762 177.684967 
L 249.998275 177.864106 
L 250.330584 178.045512 
L 250.660682 178.229174 
L 250.988557 178.415084 
L 251.3142 178.60323 
L 251.637601 178.793604 
L 251.958751 178.986194 
L 252.277641 179.18099 
L 252.594261 179.377982 
L 252.908603 179.57716 
L 253.220656 179.778513 
L 253.530413 179.98203 
L 253.837865 180.1877 
L 254.143002 180.395513 
L 254.445817 180.605457 
L 254.746301 180.817523 
L 255.044446 181.031698 
L 255.340243 181.247971 
L 255.633685 181.466331 
L 255.924764 181.686767 
L 256.213472 181.909267 
L 256.4998 182.13382 
L 256.783742 182.360415 
L 257.065291 182.589039 
L 257.344438 182.81968 
L 257.621177 183.052328 
L 257.8955 183.286969 
L 258.1674 183.523593 
L 258.436871 183.762187 
L 258.703906 184.002738 
L 258.968498 184.245236 
L 259.23064 184.489667 
L 259.490326 184.736019 
L 259.74755 184.98428 
L 260.002305 185.234437 
L 260.254586 185.486478 
L 260.504386 185.740391 
L 260.751699 185.996162 
L 260.99652 186.253779 
L 261.238842 186.513229 
L 261.478661 186.774499 
L 261.715971 187.037577 
L 261.950766 187.30245 
L 262.183041 187.569104 
L 262.412791 187.837527 
L 262.640011 188.107705 
L 262.864696 188.379625 
L 263.086841 188.653275 
L 263.306441 188.92864 
L 263.523491 189.205708 
L 263.737988 189.484465 
L 263.949926 189.764897 
L 264.159301 190.046992 
L 264.366109 190.330736 
L 264.570346 190.616116 
L 264.772008 190.903117 
L 264.97109 191.191726 
L 265.167589 191.481929 
L 265.361501 191.773714 
L 265.552823 192.067065 
L 265.74155 192.361969 
L 265.92768 192.658413 
L 266.111208 192.956383 
L 266.292133 193.255864 
L 266.470449 193.556843 
L 266.646155 193.859306 
L 266.819247 194.163238 
L 266.989722 194.468626 
L 267.157578 194.775456 
L 267.322812 195.083713 
L 267.485421 195.393384 
L 267.645402 195.704454 
L 267.802754 196.01691 
L 267.957473 196.330736 
L 268.109558 196.645919 
L 268.259006 196.962444 
L 268.405815 197.280298 
L 268.549983 197.599465 
L 268.691509 197.919932 
L 268.83039 198.241684 
L 268.966624 198.564706 
L 269.100211 198.888985 
L 269.231147 199.214506 
L 269.359433 199.541255 
L 269.485067 199.869217 
L 269.608046 200.198377 
L 269.72837 200.528721 
L 269.846039 200.860235 
L 269.961049 201.192904 
L 270.073402 201.526713 
L 270.183096 201.861649 
L 270.290129 202.197696 
L 270.394502 202.534839 
L 270.496214 202.873065 
L 270.595264 203.212358 
L 270.691651 203.552705 
L 270.785376 203.89409 
L 270.876437 204.236498 
L 270.964836 204.579916 
L 271.05057 204.924328 
L 271.133642 205.26972 
L 271.21405 205.616077 
L 271.291794 205.963384 
L 271.366875 206.311627 
L 271.439293 206.660791 
L 271.509049 207.010862 
L 271.576142 207.361824 
L 271.640573 207.713663 
L 271.702343 208.066365 
L 271.761453 208.419914 
L 271.817903 208.774296 
L 271.871693 209.129496 
L 271.922826 209.485499 
L 271.971301 209.842292 
L 272.01712 210.199858 
L 272.060284 210.558183 
L 272.100793 210.917254 
L 272.138651 211.277054 
L 272.173856 211.637569 
L 272.206412 211.998785 
L 272.236319 212.360687 
L 272.26358 212.723259 
L 272.288195 213.086489 
L 272.310166 213.45036 
L 272.329495 213.814858 
L 272.346185 214.179968 
L 272.360236 214.545676 
L 272.371651 214.911968 
L 272.380433 215.278827 
L 272.386582 215.646241 
L 272.390101 216.014194 
L 272.390993 216.382671 
L 272.38926 216.751658 
L 272.384905 217.12114 
L 272.377929 217.491103 
L 272.368335 217.861533 
L 272.356127 218.232413 
L 272.341306 218.603731 
L 272.323876 218.975471 
L 272.303839 219.347619 
L 272.281198 219.720161 
L 272.255957 220.093081 
L 272.228117 220.466365 
L 272.197683 220.84 
L 272.164658 221.21397 
L 272.129044 221.58826 
L 272.090846 221.962857 
L 272.050066 222.337746 
L 272.006708 222.712913 
L 271.960775 223.088342 
L 271.912271 223.464021 
L 271.861201 223.839934 
L 271.807566 224.216067 
L 271.751372 224.592406 
L 271.692622 224.968936 
L 271.631319 225.345643 
L 271.567469 225.722513 
L 271.501075 226.099531 
L 271.43214 226.476684 
L 271.36067 226.853957 
L 271.286669 227.231336 
L 271.21014 227.608806 
L 271.131089 227.986354 
L 271.049519 228.363965 
L 270.965435 228.741626 
L 270.878842 229.119321 
L 270.789744 229.497037 
L 270.698146 229.874761 
L 270.604053 230.252477 
L 270.507469 230.630172 
L 270.408399 231.007832 
L 270.306849 231.385443 
L 270.202824 231.76299 
L 270.096327 232.140461 
L 269.987365 232.517841 
L 269.875943 232.895115 
L 269.762065 233.272272 
L 269.645738 233.649295 
L 269.526966 234.026172 
L 269.405756 234.40289 
L 269.282111 234.779433 
L 269.156039 235.155788 
L 269.027544 235.531942 
L 268.896632 235.907881 
L 268.763309 236.283592 
L 268.627581 236.65906 
L 268.489454 237.034272 
L 268.348933 237.409214 
L 268.206024 237.783873 
L 268.060733 238.158236 
L 267.913067 238.532288 
L 267.763032 238.906017 
L 267.610633 239.279408 
L 267.455878 239.652449 
L 267.298771 240.025126 
L 267.13932 240.397426 
L 266.977531 240.769335 
L 266.813411 241.140841 
L 266.646966 241.511929 
L 266.478202 241.882586 
L 266.307126 242.2528 
L 266.133745 242.622557 
L 265.958066 242.991844 
L 265.780096 243.360648 
L 265.59984 243.728956 
L 265.417307 244.096754 
L 265.232503 244.46403 
L 265.045435 244.83077 
L 264.856111 245.196962 
L 264.664537 245.562593 
L 264.47072 245.927649 
L 264.274668 246.292119 
L 264.076388 246.655988 
L 263.875888 247.019245 
L 263.673174 247.381877 
L 263.468255 247.743869 
L 263.261137 248.105211 
L 263.051829 248.46589 
L 262.840337 248.825892 
L 262.62667 249.185205 
L 262.410836 249.543816 
L 262.192841 249.901714 
L 261.972695 250.258885 
L 261.750404 250.615316 
L 261.525976 250.970997 
L 261.29942 251.325913 
L 261.070744 251.680053 
L 260.839956 252.033405 
L 260.607063 252.385955 
L 260.372074 252.737693 
L 260.134998 253.088605 
L 259.895842 253.438679 
L 259.654615 253.787904 
L 259.411325 254.136267 
L 259.16598 254.483756 
L 258.91859 254.830359 
L 258.669162 255.176063 
L 258.417705 255.520858 
L 258.164228 255.864731 
L 257.90874 256.207671 
L 257.651249 256.549664 
L 257.391763 256.8907 
L 257.130293 257.230767 
L 256.866846 257.569853 
L 256.601431 257.907946 
L 256.334058 258.245035 
L 256.064736 258.581108 
L 255.793473 258.916154 
L 255.520279 259.25016 
L 255.245162 259.583116 
L 254.968133 259.91501 
L 254.689199 260.24583 
L 254.408372 260.575566 
L 254.125659 260.904205 
L 253.841071 261.231738 
L 253.554616 261.558151 
L 253.266304 261.883434 
L 252.976146 262.207577 
L 252.684149 262.530567 
L 252.390324 262.852394 
L 252.094681 263.173046 
L 251.79723 263.492513 
L 251.497979 263.810784 
L 251.196939 264.127848 
L 250.89412 264.443694 
L 250.589532 264.758311 
L 250.283184 265.071688 
L 249.975086 265.383815 
L 249.665249 265.69468 
L 249.353683 266.004274 
L 249.040398 266.312586 
L 248.725403 266.619605 
L 248.40871 266.92532 
L 248.090327 267.229722 
L 247.770267 267.532799 
L 247.448538 267.834542 
L 247.125152 268.134939 
L 246.800119 268.433982 
L 246.473449 268.731658 
L 246.145153 269.02796 
L 245.815241 269.322875 
L 245.483724 269.616394 
L 245.150613 269.908508 
L 244.815918 270.199205 
L 244.47965 270.488477 
L 244.14182 270.776313 
L 243.802438 271.062703 
L 243.461516 271.347638 
L 243.119064 271.631107 
L 242.775094 271.913102 
L 242.429616 272.193612 
L 242.082641 272.472628 
L 241.73418 272.75014 
L 241.384245 273.026138 
L 241.032847 273.300615 
L 240.679996 273.573559 
L 240.325705 273.844961 
L 239.969984 274.114813 
L 239.612844 274.383105 
L 239.254298 274.649827 
L 238.894356 274.914972 
L 238.533029 275.178528 
L 238.17033 275.440489 
L 237.80627 275.700843 
L 237.440861 275.959584 
L 237.074113 276.216701 
L 236.706039 276.472186 
L 236.336651 276.72603 
L 235.965959 276.978224 
L 235.593976 277.22876 
L 235.220714 277.477629 
L 234.846184 277.724822 
L 234.470399 277.970332 
L 234.09337 278.214149 
L 233.715109 278.456265 
L 233.335628 278.696672 
L 232.95494 278.935361 
L 232.573056 279.172325 
L 232.189988 279.407554 
L 231.805749 279.641042 
L 231.420351 279.872779 
L 231.033805 280.102759 
L 230.646125 280.330972 
L 230.257323 280.557412 
L 229.86741 280.782069 
L 229.4764 281.004937 
L 229.084304 281.226008 
L 228.691136 281.445274 
L 228.296907 281.662727 
L 227.90163 281.87836 
L 227.505318 282.092165 
L 227.107984 282.304136 
L 226.70964 282.514264 
L 226.310298 282.722542 
L 225.909971 282.928963 
L 225.508673 283.13352 
L 225.106416 283.336206 
L 224.703212 283.537013 
L 224.299076 283.735935 
L 223.894018 283.932965 
L 223.488053 284.128096 
L 223.081194 284.32132 
L 222.673453 284.512632 
L 222.264843 284.702024 
L 221.855378 284.889489 
L 221.445071 285.075023 
L 221.033934 285.258616 
L 220.621982 285.440265 
L 220.209227 285.61996 
L 219.795682 285.797698 
L 219.381361 285.973471 
L 218.966277 286.147273 
L 218.550443 286.319097 
L 218.133873 286.488939 
L 217.71658 286.656791 
L 217.298578 286.822649 
L 216.879881 286.986505 
L 216.4605 287.148354 
L 216.040451 287.308191 
L 215.619747 287.46601 
L 215.198402 287.621804 
L 214.776428 287.77557 
L 214.353841 287.9273 
L 213.930652 288.07699 
L 213.506878 288.224634 
L 213.08253 288.370227 
L 212.657623 288.513763 
L 212.23217 288.655239 
L 211.806187 288.794647 
L 211.379686 288.931985 
L 210.952681 289.067245 
L 210.525187 289.200424 
L 210.097217 289.331517 
L 209.668785 289.460519 
L 209.239907 289.587425 
L 208.810594 289.712231 
L 208.380863 289.834932 
L 207.950727 289.955523 
L 207.520199 290.074001 
L 207.089295 290.19036 
L 206.658029 290.304597 
L 206.226414 290.416708 
L 205.794465 290.526687 
L 205.362197 290.634532 
L 204.929624 290.740238 
L 204.49676 290.843801 
L 204.06362 290.945217 
L 203.630218 291.044483 
L 203.196569 291.141594 
L 202.762686 291.236548 
L 202.328585 291.329341 
L 201.894281 291.419968 
L 201.459787 291.508427 
L 201.025118 291.594714 
L 200.59029 291.678827 
L 200.155316 291.760761 
L 199.720211 291.840513 
L 199.284991 291.918081 
L 198.849669 291.993462 
L 198.414261 292.066652 
L 197.978782 292.137649 
L 197.543245 292.20645 
L 197.107667 292.273052 
L 196.672061 292.337452 
L 196.236444 292.399648 
L 195.800829 292.459638 
L 195.365231 292.517419 
L 194.929667 292.572989 
L 194.494149 292.626345 
L 194.058695 292.677485 
L 193.623318 292.726407 
L 193.188034 292.773109 
L 192.752857 292.817589 
L 192.317803 292.859846 
L 191.882888 292.899876 
L 191.448125 292.937679 
L 191.01353 292.973253 
L 190.579119 293.006596 
L 190.144907 293.037707 
L 189.710908 293.066583 
L 189.277139 293.093225 
L 188.843614 293.11763 
L 188.410348 293.139797 
L 187.977357 293.159726 
L 187.544657 293.177414 
L 187.112262 293.192862 
L 186.680187 293.206067 
L 186.248449 293.21703 
L 185.817063 293.225748 
L 185.386044 293.232223 
L 184.955407 293.236453 
L 184.525168 293.238437 
L 184.095342 293.238175 
L 183.665945 293.235667 
L 183.236992 293.230911 
L 182.808499 293.223909 
L 182.380481 293.21466 
L 181.952953 293.203163 
L 181.525932 293.189419 
L 181.099433 293.173428 
L 180.673471 293.15519 
L 180.248062 293.134705 
L 179.823221 293.111973 
L 179.398964 293.086994 
L 178.975307 293.05977 
L 178.552266 293.030301 
L 178.129855 292.998586 
L 177.70809 292.964628 
L 177.286988 292.928426 
L 176.866563 292.889981 
L 176.446832 292.849295 
L 176.02781 292.806368 
L 175.609513 292.761202 
L 175.191956 292.713797 
L 174.775155 292.664154 
L 174.359126 292.612276 
L 173.943884 292.558163 
L 173.529446 292.501816 
L 173.115826 292.443238 
L 172.703041 292.38243 
L 172.291107 292.319393 
L 171.880038 292.254129 
L 171.469851 292.186641 
L 171.060561 292.116929 
L 170.652184 292.044996 
L 170.244737 291.970844 
L 169.838233 291.894475 
L 169.432691 291.815892 
L 169.028124 291.735096 
L 168.624548 291.65209 
L 168.221981 291.566876 
L 167.820436 291.479458 
L 167.41993 291.389836 
L 167.020479 291.298015 
L 166.622098 291.203997 
L 166.224803 291.107784 
L 165.828609 291.00938 
L 165.433533 290.908787 
L 165.03959 290.806009 
L 164.646796 290.701049 
L 164.255166 290.59391 
L 163.864716 290.484595 
L 163.475461 290.373107 
L 163.087418 290.259451 
L 162.700602 290.143629 
L 162.315029 290.025645 
L 161.930714 289.905503 
L 161.547672 289.783206 
L 161.16592 289.658759 
L 160.785473 289.532165 
L 160.406347 289.403428 
L 160.028556 289.272552 
L 159.652117 289.139541 
L 159.277046 289.004401 
L 158.903357 288.867134 
L 158.531066 288.727745 
L 158.160189 288.586238 
L 157.790741 288.442619 
L 157.422737 288.296891 
L 157.056194 288.14906 
L 156.691126 287.99913 
L 156.327548 287.847105 
L 155.965477 287.692992 
L 155.604927 287.536794 
L 155.245914 287.378516 
L 154.888453 287.218165 
L 154.532559 287.055744 
L 154.178248 286.891259 
L 153.825535 286.724717 
L 153.474434 286.556121 
L 153.124962 286.385477 
L 152.777134 286.212791 
L 152.430963 286.038069 
L 152.086467 285.861317 
L 151.743658 285.682539 
L 151.402554 285.501742 
L 151.063168 285.318932 
L 150.725516 285.134115 
L 150.389612 284.947297 
L 150.055472 284.758483 
L 149.72311 284.567681 
L 149.392541 284.374897 
L 149.063781 284.180136 
L 148.736843 283.983405 
L 148.411742 283.784712 
L 148.088494 283.584061 
L 147.767112 283.381461 
L 147.447612 283.176917 
L 147.130008 282.970437 
L 146.814315 282.762027 
L 146.500547 282.551695 
L 146.188718 282.339447 
L 145.878843 282.12529 
L 145.570937 281.909232 
L 145.265013 281.69128 
L 144.961086 281.47144 
L 144.65917 281.249721 
L 144.35928 281.02613 
L 144.061429 280.800674 
L 143.765632 280.573361 
L 143.471902 280.344199 
L 143.180254 280.113195 
L 142.890702 279.880357 
L 142.603259 279.645693 
L 142.31794 279.40921 
L 142.034757 279.170918 
L 141.753726 278.930823 
L 141.474859 278.688934 
L 141.198171 278.44526 
L 140.923674 278.199807 
L 140.651383 277.952586 
L 140.38131 277.703604 
L 140.11347 277.452869 
L 139.847875 277.200391 
L 139.584538 276.946177 
L 139.323474 276.690236 
L 139.064695 276.432578 
L 138.808215 276.173211 
L 138.554045 275.912144 
L 138.3022 275.649385 
L 138.052692 275.384944 
L 137.805534 275.11883 
L 137.560739 274.851051 
L 137.31832 274.581618 
L 137.078288 274.31054 
L 136.840658 274.037825 
L 136.60544 273.763483 
L 136.372648 273.487523 
L 136.142294 273.209956 
L 135.914391 272.930791 
L 135.688949 272.650036 
L 135.465983 272.367703 
L 135.245503 272.083801 
L 135.027522 271.798339 
L 134.812051 271.511327 
L 134.599102 271.222776 
L 134.388688 270.932696 
L 134.18082 270.641096 
L 133.975508 270.347987 
L 133.772766 270.053379 
L 133.572604 269.757282 
L 133.375033 269.459706 
L 133.180066 269.160663 
L 132.987712 268.860162 
L 132.797984 268.558214 
L 132.610891 268.254829 
L 132.426446 267.950018 
L 132.244658 267.643792 
L 132.065539 267.336162 
L 131.889099 267.027138 
L 131.715349 266.716731 
L 131.544299 266.404952 
L 131.37596 266.091813 
L 131.210341 265.777324 
L 131.047454 265.461495 
L 130.887307 265.14434 
L 130.729912 264.825868 
L 130.575277 264.50609 
L 130.423413 264.18502 
L 130.27433 263.862666 
L 130.128036 263.539042 
L 129.984542 263.214158 
L 129.843857 262.888027 
L 129.70599 262.560659 
L 129.57095 262.232066 
L 129.438747 261.902261 
L 129.309388 261.571254 
L 129.182884 261.239059 
L 129.059243 260.905685 
L 128.938474 260.571146 
L 128.820584 260.235454 
L 128.705583 259.89862 
L 128.593479 259.560657 
L 128.48428 259.221577 
L 128.377994 258.881391 
L 128.274629 258.540113 
L 128.174193 258.197754 
L 128.076694 257.854327 
L 127.982139 257.509844 
L 127.890536 257.164318 
L 127.801892 256.817761 
L 127.716215 256.470186 
L 127.633511 256.121605 
L 127.553788 255.772031 
L 127.477053 255.421477 
L 127.403312 255.069955 
L 127.332572 254.717478 
L 127.26484 254.364059 
L 127.200122 254.009712 
L 127.138424 253.654448 
L 127.079752 253.298281 
L 127.024113 252.941224 
L 126.971513 252.58329 
L 126.921957 252.224491 
L 126.875451 251.864843 
L 126.832 251.504356 
L 126.79161 251.143045 
L 126.754286 250.780924 
L 126.720033 250.418004 
L 126.688857 250.054301 
L 126.660761 249.689826 
L 126.635752 249.324594 
L 126.613833 248.958619 
L 126.595009 248.591913 
L 126.579284 248.22449 
L 126.566662 247.856364 
L 126.557147 247.487549 
L 126.550744 247.118059 
L 126.547457 246.747906 
L 126.547287 246.377106 
L 126.55024 246.005671 
L 126.556318 245.633616 
L 126.565526 245.260955 
L 126.577864 244.887701 
L 126.593338 244.513868 
L 126.611948 244.139472 
L 126.633699 243.764525 
L 126.658592 243.389042 
L 126.68663 243.013037 
L 126.717815 242.636524 
L 126.752149 242.259517 
L 126.789634 241.882032 
L 126.830271 241.504081 
L 126.874062 241.125679 
L 126.921009 240.746841 
L 126.971112 240.367581 
L 127.024374 239.987914 
L 127.080794 239.607854 
L 127.140373 239.227415 
L 127.203113 238.846612 
L 127.269014 238.465459 
L 127.338076 238.083972 
L 127.410299 237.702165 
L 127.485683 237.320052 
L 127.564228 236.937648 
L 127.645934 236.554968 
L 127.7308 236.172027 
L 127.818826 235.788839 
L 127.910011 235.40542 
L 128.004354 235.021783 
L 128.101854 234.637945 
L 128.202509 234.253919 
L 128.306318 233.869721 
L 128.41328 233.485366 
L 128.523393 233.100868 
L 128.636654 232.716243 
L 128.753063 232.331506 
L 128.872615 231.946672 
L 128.99531 231.561755 
L 129.121144 231.176771 
L 129.250115 230.791736 
L 129.38222 230.406663 
L 129.517456 230.021569 
L 129.655818 229.636469 
L 129.797305 229.251377 
L 129.941913 228.866309 
L 130.089637 228.481281 
L 130.240473 228.096307 
L 130.394418 227.711403 
L 130.551468 227.326584 
L 130.711617 226.941866 
L 130.874862 226.557263 
L 131.041197 226.172792 
L 131.210617 225.788467 
L 131.383118 225.404305 
L 131.558694 225.020319 
L 131.737339 224.636527 
L 131.919049 224.252943 
L 132.103816 223.869582 
L 132.291635 223.486461 
L 132.482501 223.103595 
L 132.676405 222.720999 
L 132.873343 222.338689 
L 133.073307 221.95668 
L 133.276291 221.574988 
L 133.482287 221.193628 
L 133.691288 220.812617 
L 133.903287 220.431969 
L 134.118276 220.0517 
L 134.336247 219.671825 
L 134.557193 219.292362 
L 134.781106 218.913324 
L 135.007976 218.534728 
L 135.237796 218.156588 
L 135.470558 217.778922 
L 135.706251 217.401744 
L 135.944868 217.025071 
L 136.186399 216.648917 
L 136.430835 216.273298 
L 136.678166 215.898231 
L 136.928383 215.52373 
L 137.181476 215.149812 
L 137.437435 214.776492 
L 137.696249 214.403785 
L 137.957908 214.031708 
L 138.222402 213.660275 
L 138.48972 213.289504 
L 138.75985 212.919408 
L 139.032783 212.550005 
L 139.308507 212.181309 
L 139.58701 211.813337 
L 139.86828 211.446103 
L 140.152307 211.079624 
L 140.439078 210.713915 
L 140.72858 210.348992 
L 141.020802 209.984871 
L 141.315732 209.621566 
L 141.613355 209.259094 
L 141.913661 208.89747 
L 142.216636 208.53671 
L 142.522266 208.17683 
L 142.830538 207.817844 
L 143.14144 207.459769 
L 143.454957 207.102619 
L 143.771075 206.746412 
L 144.089781 206.391161 
L 144.41106 206.036883 
L 144.734898 205.683593 
L 145.061281 205.331306 
L 145.390193 204.980038 
L 145.721621 204.629805 
L 146.055549 204.280621 
L 146.391963 203.932502 
L 146.730846 203.585464 
L 147.072183 203.239522 
L 147.415959 202.894691 
L 147.762158 202.550986 
L 148.110764 202.208423 
L 148.461761 201.867018 
L 148.815133 201.526784 
L 149.170864 201.187738 
L 149.528936 200.849894 
L 149.889333 200.513269 
L 150.252038 200.177876 
L 150.617035 199.843731 
L 150.984305 199.510849 
L 151.353833 199.179246 
L 151.7256 198.848935 
L 152.099588 198.519933 
L 152.47578 198.192253 
L 152.854159 197.865912 
L 153.234705 197.540923 
L 153.617401 197.217302 
L 154.002229 196.895063 
L 154.389169 196.574222 
L 154.778204 196.254792 
L 155.169315 195.93679 
L 155.562482 195.620228 
L 155.957687 195.305122 
L 156.354911 194.991487 
L 156.754133 194.679336 
L 157.155336 194.368685 
L 157.558499 194.059548 
L 157.963602 193.751939 
L 158.370626 193.445873 
L 158.779551 193.141364 
L 159.190356 192.838425 
L 159.603022 192.537072 
L 160.017528 192.237319 
L 160.433854 191.939179 
L 160.851979 191.642666 
L 161.271883 191.347796 
L 161.693544 191.05458 
L 162.116942 190.763035 
L 162.542056 190.473172 
L 162.968865 190.185006 
L 163.397347 189.898552 
L 163.827481 189.613821 
L 164.259246 189.330829 
L 164.692619 189.049588 
L 165.12758 188.770112 
L 165.564107 188.492414 
L 166.002177 188.216508 
L 166.441769 187.942408 
L 166.882861 187.670125 
L 167.325431 187.399674 
L 167.769455 187.131067 
L 168.214913 186.864318 
L 168.661781 186.599439 
L 169.110038 186.336444 
L 169.559659 186.075345 
L 170.010624 185.816154 
L 170.462908 185.558885 
L 170.91649 185.30355 
L 171.371346 185.050162 
L 171.827453 184.798733 
L 172.284788 184.549275 
L 172.743329 184.301801 
L 173.203051 184.056323 
L 173.663932 183.812853 
L 174.125948 183.571402 
L 174.589076 183.331984 
L 175.053292 183.09461 
L 175.518574 182.859291 
L 175.984896 182.626039 
L 176.452236 182.394867 
L 176.920571 182.165784 
L 177.389875 181.938804 
L 177.860126 181.713937 
L 178.3313 181.491194 
L 178.803373 181.270587 
L 179.27632 181.052127 
L 179.750119 180.835824 
L 180.224744 180.62169 
L 180.700173 180.409736 
L 181.17638 180.199971 
L 181.653343 179.992407 
L 182.131036 179.787054 
L 182.609435 179.583922 
L 183.088517 179.383023 
L 183.568258 179.184365 
L 184.048632 178.987959 
L 184.529616 178.793816 
L 185.011186 178.601944 
L 185.493318 178.412354 
L 185.975986 178.225055 
L 186.459168 178.040057 
L 186.942838 177.857369 
L 187.426972 177.677001 
L 187.911546 177.498962 
L 188.396537 177.323261 
L 188.881919 177.149907 
L 189.367668 176.978909 
L 189.85376 176.810276 
L 190.340171 176.644016 
L 190.826876 176.480137 
L 191.313852 176.318649 
L 191.801074 176.15956 
L 192.288518 176.002877 
L 192.77616 175.848609 
L 193.263976 175.696764 
L 193.751941 175.547349 
L 194.240031 175.400373 
L 194.728223 175.255843 
L 195.216493 175.113766 
L 195.704815 174.974149 
L 196.193167 174.837001 
L 196.681525 174.702327 
L 197.169865 174.570135 
L 197.658162 174.440432 
L 198.146393 174.313224 
L 198.634534 174.188519 
L 199.122563 174.066321 
L 199.610454 173.946639 
L 200.098184 173.829477 
L 200.58573 173.714842 
L 201.073069 173.602739 
L 201.560176 173.493176 
L 202.047029 173.386156 
L 202.533604 173.281686 
L 203.019878 173.179771 
L 203.505828 173.080416 
L 203.991431 172.983627 
L 204.476663 172.889408 
L 204.961502 172.797764 
L 205.445925 172.7087 
L 205.929909 172.62222 
L 206.413431 172.538328 
L 206.896469 172.45703 
L 207.378999 172.378328 
L 207.861001 172.302228 
L 208.34245 172.228732 
L 208.823325 172.157845 
L 209.303603 172.08957 
L 209.783263 172.02391 
L 210.262282 171.960869 
L 210.740639 171.900449 
L 211.218311 171.842655 
L 211.695276 171.787488 
L 212.171514 171.734951 
L 212.647002 171.685046 
L 213.121718 171.637777 
L 213.595642 171.593146 
L 214.068753 171.551153 
L 214.541028 171.511802 
L 215.012447 171.475094 
L 215.482989 171.441031 
L 215.952633 171.409614 
L 216.421358 171.380845 
L 216.889144 171.354725 
L 217.355969 171.331254 
L 217.821815 171.310435 
L 218.286659 171.292266 
L 218.750483 171.27675 
L 219.213265 171.263887 
L 219.674987 171.253676 
L 220.135628 171.246118 
L 220.595168 171.241214 
L 221.053587 171.238962 
L 221.510867 171.239363 
L 221.966988 171.242416 
L 222.42193 171.248121 
L 222.875675 171.256477 
L 223.328202 171.267483 
L 223.779495 171.281137 
L 224.229533 171.29744 
z
" clip-path="url(#pc41676ac5f)" style="fill: none; stroke: #d62728; stroke-width: 3; stroke-linejoin: miter"/>
   </g>
   <g id="grid lines_1">
    <g id="patch_4">
     <path d="M 0 0 
" clip-path="url(#pc41676ac5f)" style="fill: none; stroke: #b0b0b0; stroke-width: 0.8; stroke-linejoin: miter"/>
    </g>
    <g id="patch_5">
     <path d="M 246.50787 313.545281 
L 247.924919 301.496936 
L 249.594328 289.228153 
L 251.431437 277.352466 
L 253.481595 265.523852 
L 255.745676 253.747384 
L 258.224668 242.028127 
L 260.919688 230.371137 
L 263.831982 218.781463 
L 266.867721 207.601808 
L 270.110866 196.494916 
L 273.562981 185.465378 
L 277.22579 174.517783 
L 280.980614 163.984518 
L 284.937248 153.536784 
L 289.097781 143.17875 
L 293.464499 132.914585 
L 297.893742 123.064622 
L 302.521326 113.310455 
L 307.349967 103.655879 
L 312.217068 94.411145 
L 317.278165 85.266695 
L 322.536441 76.225995 
L 327.99536 67.292522 
L 333.46658 58.762047 
L 339.132512 50.33822 
L 344.997178 42.024247 
L 350.852277 34.104232 
L 356.900971 26.292582 
L 363.147882 18.592276 
L 366.347219 14.784818 
L 366.347219 14.784818 
" clip-path="url(#pc41676ac5f)" style="fill: none; stroke: #b0b0b0; stroke-width: 0.8; stroke-linejoin: miter"/>
    </g>
    <g id="patch_6">
     <path d="M 80.791029 313.545281 
L 82.753305 304.661913 
L 84.973944 295.66553 
L 87.425161 286.69379 
L 90.107376 277.749127 
L 93.021056 268.833983 
L 96.166715 259.950806 
L 99.544917 251.102051 
L 103.156282 242.290179 
L 107.00148 233.517661 
L 110.91354 225.13537 
L 115.042476 216.793835 
L 119.389042 208.49527 
L 123.954049 200.241897 
L 128.738371 192.035953 
L 133.742944 183.879684 
L 138.968771 175.775353 
L 144.416929 167.725237 
L 150.088565 159.731631 
L 155.98491 151.796847 
L 162.107277 143.92322 
L 168.457068 136.113104 
L 175.035778 128.368879 
L 181.845002 120.69295 
L 188.88644 113.087754 
L 196.161904 105.555756 
L 203.673324 98.099457 
L 211.422753 90.721396 
L 219.412378 83.424152 
L 227.644525 76.210349 
L 236.121671 69.08266 
L 244.846447 62.043812 
L 253.821652 55.096589 
L 263.050263 48.243838 
L 272.535443 41.488477 
L 281.869271 35.108745 
L 291.444958 28.823908 
L 301.265831 22.636748 
L 311.335414 16.550126 
L 320.296636 11.341428 
L 320.296636 11.341428 
" clip-path="url(#pc41676ac5f)" style="fill: none; stroke: #b0b0b0; stroke-width: 0.8; stroke-linejoin: miter"/>
    </g>
    <g id="patch_7">
     <path d="M -1 178.866487 
L 5.656012 171.727003 
L 12.699568 164.492953 
L 19.995476 157.315176 
L 27.544239 150.195829 
L 35.346387 143.137092 
L 43.402475 136.141173 
L 51.713089 129.210307 
L 60.278845 122.346762 
L 69.100385 115.552837 
L 78.178387 108.830866 
L 87.964517 101.868558 
L 98.033743 94.990593 
L 108.386957 88.19979 
L 119.025092 81.499024 
L 129.949121 74.891224 
L 141.160062 68.379382 
L 152.658972 61.966549 
L 164.446954 55.655849 
L 176.525151 49.450475 
L 188.894752 43.353698 
L 201.556986 37.368869 
L 214.513125 31.499428 
L 227.764481 25.748904 
L 241.312406 20.120927 
L 255.15829 14.619229 
L 269.303557 9.247653 
L 279.120454 5.661845 
L 279.120454 5.661845 
" clip-path="url(#pc41676ac5f)" style="fill: none; stroke: #b0b0b0; stroke-width: 0.8; stroke-linejoin: miter"/>
    </g>
    <g id="patch_8">
     <path d="M -1 87.156357 
L 10.680729 81.243178 
L 23.18531 75.154734 
L 35.977116 69.170432 
L 49.054909 63.29324 
L 62.417386 57.526166 
L 76.06317 51.872259 
L 89.990815 46.334609 
L 104.198793 40.916351 
L 118.685492 35.620663 
L 133.449215 30.450771 
L 148.488165 25.409948 
L 163.800451 20.501516 
L 180.170339 15.49384 
L 196.836924 10.63981 
L 213.797611 5.943456 
L 231.049649 1.408875 
L 240.602576 -1 
L 240.602576 -1 
" clip-path="url(#pc41676ac5f)" style="fill: none; stroke: #b0b0b0; stroke-width: 0.8; stroke-linejoin: miter"/>
    </g>
    <g id="patch_9">
     <path d="M -1 41.664749 
L 14.313496 36.75408 
L 30.384387 31.82333 
L 46.71174 27.037993 
L 63.29057 22.400979 
L 80.115738 17.91519 
L 98.086748 13.359853 
L 116.318484 8.978628 
L 134.804387 4.774847 
L 153.537698 0.75182 
L 162.052998 -1 
L 162.052998 -1 
" clip-path="url(#pc41676ac5f)" style="fill: none; stroke: #b0b0b0; stroke-width: 0.8; stroke-linejoin: miter"/>
    </g>
   </g>
   <g id="grid lines_2">
    <g id="patch_10">
     <path d="M 411.795469 310.226625 
L 342.931978 310.107085 
L 274.66637 309.768721 
L 207.664225 309.215211 
L 142.938468 308.458671 
L 81.443932 307.520317 
L 23.246436 306.414296 
L -1 305.884926 
L -1 305.884926 
" clip-path="url(#pc41676ac5f)" style="fill: none; stroke: #b0b0b0; stroke-width: 0.8; stroke-linejoin: miter"/>
    </g>
    <g id="patch_11">
     <path d="M 411.795469 233.729557 
L 365.986605 233.607914 
L 319.591274 233.264096 
L 274.156329 232.707488 
L 228.977594 231.930466 
L 185.678187 230.966282 
L 143.533374 229.808841 
L 102.592681 228.462672 
L 63.642999 226.962394 
L 25.955486 225.288355 
L -1 223.944836 
L -1 223.944836 
" clip-path="url(#pc41676ac5f)" style="fill: none; stroke: #b0b0b0; stroke-width: 0.8; stroke-linejoin: miter"/>
    </g>
    <g id="patch_12">
     <path d="M 411.795469 159.872905 
L 377.843852 159.746983 
L 343.605562 159.402336 
L 309.492049 158.837783 
L 276.226793 158.068646 
L 243.196789 157.083008 
L 211.111333 155.903358 
L 180.006562 154.538383 
L 149.913122 152.996274 
L 120.856499 151.284828 
L 92.857325 149.411541 
L 66.538342 147.43198 
L 41.282217 145.313934 
L 17.094703 143.064605 
L -1 141.226594 
L -1 141.226594 
" clip-path="url(#pc41676ac5f)" style="fill: none; stroke: #b0b0b0; stroke-width: 0.8; stroke-linejoin: miter"/>
    </g>
    <g id="patch_13">
     <path d="M 411.795469 89.920177 
L 386.93475 89.788471 
L 361.631 89.435683 
L 336.445587 88.861515 
L 311.933325 88.082831 
L 287.642881 87.088678 
L 264.115433 85.903895 
L 241.384372 84.539246 
L 219.477806 83.005155 
L 198.418869 81.311774 
L 178.225994 79.469046 
L 158.91318 77.486753 
L 140.490233 75.374571 
L 122.962997 73.142101 
L 106.333562 70.798912 
L 90.997686 68.419228 
L 76.527532 65.955924 
L 62.913808 63.418467 
L 50.144395 60.816341 
L 38.204521 58.159049 
L 27.076923 55.456109 
L 16.742016 52.717044 
L 7.178052 49.951368 
L -1 47.37856 
L -1 47.37856 
" clip-path="url(#pc41676ac5f)" style="fill: none; stroke: #b0b0b0; stroke-width: 0.8; stroke-linejoin: miter"/>
    </g>
    <g id="patch_14">
     <path d="M 411.795469 25.067165 
L 395.354216 24.917929 
L 378.818628 24.545765 
L 362.713064 23.963404 
L 346.816812 23.166599 
L 331.466567 22.175349 
L 316.7086 21.00127 
L 302.583083 19.655906 
L 289.124359 18.150742 
L 276.602211 16.53065 
L 264.779975 14.780037 
L 253.895571 12.94964 
L 243.717774 11.016718 
L 234.45247 9.037289 
L 225.87814 6.981871 
L 218.168982 4.911116 
L 211.116761 2.789209 
L 204.864855 0.68075 
L 200.370413 -1 
L 200.370413 -1 
" clip-path="url(#pc41676ac5f)" style="fill: none; stroke: #b0b0b0; stroke-width: 0.8; stroke-linejoin: miter"/>
    </g>
   </g>
   <g id="ticks_1">
    <defs>
     <path id="m0fe4ade1d8" d="M 0 0 
L -0.42586 3.473995 
" style="stroke: #000000; stroke-width: 0.8"/>
    </defs>
    <g>
     <use xlink:href="#m0fe4ade1d8" x="247.448508" y="305.345281" style="fill: none; stroke: #000000; stroke-width: 0.8"/>
     <use xlink:href="#m0fe4ade1d8" x="247.448508" y="305.345281" style="fill: none; stroke: #000000; stroke-width: 0.8"/>
    </g>
    <defs>
     <path id="m374e1dc9fc" d="M 0 0 
L -0.800728 3.407174 
" style="stroke: #000000; stroke-width: 0.8"/>
    </defs>
    <g>
     <use xlink:href="#m374e1dc9fc" x="82.594254" y="305.345281" style="fill: none; stroke: #000000; stroke-width: 0.8"/>
     <use xlink:href="#m374e1dc9fc" x="82.594254" y="305.345281" style="fill: none; stroke: #000000; stroke-width: 0.8"/>
    </g>
    <defs>
     <path id="m6e5f2f3c4d" d="M 0 0 
L 2.106408 -2.795183 
" style="stroke: #000000; stroke-width: 0.8"/>
    </defs>
    <g>
     <use xlink:href="#m6e5f2f3c4d" x="347.029713" y="39.233281" style="fill: none; stroke: #000000; stroke-width: 0.8"/>
     <use xlink:href="#m6e5f2f3c4d" x="347.029713" y="39.233281" style="fill: none; stroke: #000000; stroke-width: 0.8"/>
    </g>
    <defs>
     <path id="m494d20a847" d="M 0 0 
L 2.904532 -1.952868 
" style="stroke: #000000; stroke-width: 0.8"/>
    </defs>
    <g>
     <use xlink:href="#m494d20a847" x="275.791916" y="39.233281" style="fill: none; stroke: #000000; stroke-width: 0.8"/>
     <use xlink:href="#m494d20a847" x="275.791916" y="39.233281" style="fill: none; stroke: #000000; stroke-width: 0.8"/>
    </g>
    <defs>
     <path id="m70c0a272ae" d="M 0 0 
L 3.178905 -1.464433 
" style="stroke: #000000; stroke-width: 0.8"/>
    </defs>
    <g>
     <use xlink:href="#m70c0a272ae" x="197.554889" y="39.233281" style="fill: none; stroke: #000000; stroke-width: 0.8"/>
     <use xlink:href="#m70c0a272ae" x="197.554889" y="39.233281" style="fill: none; stroke: #000000; stroke-width: 0.8"/>
    </g>
    <defs>
     <path id="m163b33fbae" d="M 0 0 
L 3.289262 -1.196143 
" style="stroke: #000000; stroke-width: 0.8"/>
    </defs>
    <g>
     <use xlink:href="#m163b33fbae" x="108.736311" y="39.233281" style="fill: none; stroke: #000000; stroke-width: 0.8"/>
     <use xlink:href="#m163b33fbae" x="108.736311" y="39.233281" style="fill: none; stroke: #000000; stroke-width: 0.8"/>
    </g>
    <defs>
     <path id="mfeba0aff22" d="M 0 0 
L -2.693969 2.234397 
" style="stroke: #000000; stroke-width: 0.8"/>
    </defs>
    <g>
     <use xlink:href="#mfeba0aff22" x="46.475469" y="133.545796" style="fill: none; stroke: #000000; stroke-width: 0.8"/>
     <use xlink:href="#mfeba0aff22" x="46.475469" y="133.545796" style="fill: none; stroke: #000000; stroke-width: 0.8"/>
    </g>
    <defs>
     <path id="m3013ada5f0" d="M 0 0 
L -3.204925 1.406576 
" style="stroke: #000000; stroke-width: 0.8"/>
    </defs>
    <g>
     <use xlink:href="#m3013ada5f0" x="46.475469" y="64.433904" style="fill: none; stroke: #000000; stroke-width: 0.8"/>
     <use xlink:href="#m3013ada5f0" x="46.475469" y="64.433904" style="fill: none; stroke: #000000; stroke-width: 0.8"/>
    </g>
    <g id="text_1">
     <!-- 30° -->
     <g transform="translate(339.053463 30.361562) scale(0.09 -0.09)">
      <defs>
       <path id="DejaVuSans-33" d="M 2597 2516 
Q 3050 2419 3304 2112 
Q 3559 1806 3559 1356 
Q 3559 666 3084 287 
Q 2609 -91 1734 -91 
Q 1441 -91 1130 -33 
Q 819 25 488 141 
L 488 750 
Q 750 597 1062 519 
Q 1375 441 1716 441 
Q 2309 441 2620 675 
Q 2931 909 2931 1356 
Q 2931 1769 2642 2001 
Q 2353 2234 1838 2234 
L 1294 2234 
L 1294 2753 
L 1863 2753 
Q 2328 2753 2575 2939 
Q 2822 3125 2822 3475 
Q 2822 3834 2567 4026 
Q 2313 4219 1838 4219 
Q 1578 4219 1281 4162 
Q 984 4106 628 3988 
L 628 4550 
Q 988 4650 1302 4700 
Q 1616 4750 1894 4750 
Q 2613 4750 3031 4423 
Q 3450 4097 3450 3541 
Q 3450 3153 3228 2886 
Q 3006 2619 2597 2516 
z
" transform="scale(0.015625)"/>
       <path id="DejaVuSans-30" d="M 2034 4250 
Q 1547 4250 1301 3770 
Q 1056 3291 1056 2328 
Q 1056 1369 1301 889 
Q 1547 409 2034 409 
Q 2525 409 2770 889 
Q 3016 1369 3016 2328 
Q 3016 3291 2770 3770 
Q 2525 4250 2034 4250 
z
M 2034 4750 
Q 2819 4750 3233 4129 
Q 3647 3509 3647 2328 
Q 3647 1150 3233 529 
Q 2819 -91 2034 -91 
Q 1250 -91 836 529 
Q 422 1150 422 2328 
Q 422 3509 836 4129 
Q 1250 4750 2034 4750 
z
" transform="scale(0.015625)"/>
       <path id="DejaVuSans-b0" d="M 1600 4347 
Q 1350 4347 1178 4173 
Q 1006 4000 1006 3750 
Q 1006 3503 1178 3333 
Q 1350 3163 1600 3163 
Q 1850 3163 2022 3333 
Q 2194 3503 2194 3750 
Q 2194 3997 2020 4172 
Q 1847 4347 1600 4347 
z
M 1600 4750 
Q 1800 4750 1984 4673 
Q 2169 4597 2303 4453 
Q 2447 4313 2519 4134 
Q 2591 3956 2591 3750 
Q 2591 3338 2302 3052 
Q 2013 2766 1594 2766 
Q 1172 2766 890 3047 
Q 609 3328 609 3750 
Q 609 4169 896 4459 
Q 1184 4750 1600 4750 
z
" transform="scale(0.015625)"/>
      </defs>
      <use xlink:href="#DejaVuSans-33"/>
      <use xlink:href="#DejaVuSans-30" transform="translate(63.623047 0)"/>
      <use xlink:href="#DejaVuSans-b0" transform="translate(127.246094 0)"/>
     </g>
    </g>
    <g id="text_2">
     <!-- 60° -->
     <g transform="translate(267.815666 30.361562) scale(0.09 -0.09)">
      <defs>
       <path id="DejaVuSans-36" d="M 2113 2584 
Q 1688 2584 1439 2293 
Q 1191 2003 1191 1497 
Q 1191 994 1439 701 
Q 1688 409 2113 409 
Q 2538 409 2786 701 
Q 3034 994 3034 1497 
Q 3034 2003 2786 2293 
Q 2538 2584 2113 2584 
z
M 3366 4563 
L 3366 3988 
Q 3128 4100 2886 4159 
Q 2644 4219 2406 4219 
Q 1781 4219 1451 3797 
Q 1122 3375 1075 2522 
Q 1259 2794 1537 2939 
Q 1816 3084 2150 3084 
Q 2853 3084 3261 2657 
Q 3669 2231 3669 1497 
Q 3669 778 3244 343 
Q 2819 -91 2113 -91 
Q 1303 -91 875 529 
Q 447 1150 447 2328 
Q 447 3434 972 4092 
Q 1497 4750 2381 4750 
Q 2619 4750 2861 4703 
Q 3103 4656 3366 4563 
z
" transform="scale(0.015625)"/>
      </defs>
      <use xlink:href="#DejaVuSans-36"/>
      <use xlink:href="#DejaVuSans-30" transform="translate(63.623047 0)"/>
      <use xlink:href="#DejaVuSans-b0" transform="translate(127.246094 0)"/>
     </g>
    </g>
    <g id="text_3">
     <!-- 90° -->
     <g transform="translate(189.578639 30.361562) scale(0.09 -0.09)">
      <defs>
       <path id="DejaVuSans-39" d="M 703 97 
L 703 672 
Q 941 559 1184 500 
Q 1428 441 1663 441 
Q 2288 441 2617 861 
Q 2947 1281 2994 2138 
Q 2813 1869 2534 1725 
Q 2256 1581 1919 1581 
Q 1219 1581 811 2004 
Q 403 2428 403 3163 
Q 403 3881 828 4315 
Q 1253 4750 1959 4750 
Q 2769 4750 3195 4129 
Q 3622 3509 3622 2328 
Q 3622 1225 3098 567 
Q 2575 -91 1691 -91 
Q 1453 -91 1209 -44 
Q 966 3 703 97 
z
M 1959 2075 
Q 2384 2075 2632 2365 
Q 2881 2656 2881 3163 
Q 2881 3666 2632 3958 
Q 2384 4250 1959 4250 
Q 1534 4250 1286 3958 
Q 1038 3666 1038 3163 
Q 1038 2656 1286 2365 
Q 1534 2075 1959 2075 
z
" transform="scale(0.015625)"/>
      </defs>
      <use xlink:href="#DejaVuSans-39"/>
      <use xlink:href="#DejaVuSans-30" transform="translate(63.623047 0)"/>
      <use xlink:href="#DejaVuSans-b0" transform="translate(127.246094 0)"/>
     </g>
    </g>
    <g id="text_4">
     <!-- 120° -->
     <g transform="translate(97.896936 30.361562) scale(0.09 -0.09)">
      <defs>
       <path id="DejaVuSans-31" d="M 794 531 
L 1825 531 
L 1825 4091 
L 703 3866 
L 703 4441 
L 1819 4666 
L 2450 4666 
L 2450 531 
L 3481 531 
L 3481 0 
L 794 0 
L 794 531 
z
" transform="scale(0.015625)"/>
       <path id="DejaVuSans-32" d="M 1228 531 
L 3431 531 
L 3431 0 
L 469 0 
L 469 531 
Q 828 903 1448 1529 
Q 2069 2156 2228 2338 
Q 2531 2678 2651 2914 
Q 2772 3150 2772 3378 
Q 2772 3750 2511 3984 
Q 2250 4219 1831 4219 
Q 1534 4219 1204 4116 
Q 875 4013 500 3803 
L 500 4441 
Q 881 4594 1212 4672 
Q 1544 4750 1819 4750 
Q 2544 4750 2975 4387 
Q 3406 4025 3406 3419 
Q 3406 3131 3298 2873 
Q 3191 2616 2906 2266 
Q 2828 2175 2409 1742 
Q 1991 1309 1228 531 
z
" transform="scale(0.015625)"/>
      </defs>
      <use xlink:href="#DejaVuSans-31"/>
      <use xlink:href="#DejaVuSans-32" transform="translate(63.623047 0)"/>
      <use xlink:href="#DejaVuSans-30" transform="translate(127.246094 0)"/>
      <use xlink:href="#DejaVuSans-b0" transform="translate(190.869141 0)"/>
     </g>
    </g>
   </g>
   <g id="ticks_2">
    <defs>
     <path id="m0ca80adc54" d="M 0 0 
L 3.499998 0.003663 
" style="stroke: #000000; stroke-width: 0.8"/>
    </defs>
    <g>
     <use xlink:href="#m0ca80adc54" x="403.595469" y="233.723576" style="fill: none; stroke: #000000; stroke-width: 0.8"/>
     <use xlink:href="#m0ca80adc54" x="403.595469" y="233.723576" style="fill: none; stroke: #000000; stroke-width: 0.8"/>
    </g>
    <defs>
     <path id="m2b7f23fb83" d="M 0 0 
L 3.499994 0.006632 
" style="stroke: #000000; stroke-width: 0.8"/>
    </defs>
    <g>
     <use xlink:href="#m2b7f23fb83" x="403.595469" y="159.862077" style="fill: none; stroke: #000000; stroke-width: 0.8"/>
     <use xlink:href="#m2b7f23fb83" x="403.595469" y="159.862077" style="fill: none; stroke: #000000; stroke-width: 0.8"/>
    </g>
    <defs>
     <path id="m891d49d46f" d="M 0 0 
L 3.499979 0.012251 
" style="stroke: #000000; stroke-width: 0.8"/>
    </defs>
    <g>
     <use xlink:href="#m891d49d46f" x="403.595469" y="89.900149" style="fill: none; stroke: #000000; stroke-width: 0.8"/>
     <use xlink:href="#m891d49d46f" x="403.595469" y="89.900149" style="fill: none; stroke: #000000; stroke-width: 0.8"/>
    </g>
    <defs>
     <path id="mad2517d114" d="M 0 0 
L -3.496618 -0.153835 
" style="stroke: #000000; stroke-width: 0.8"/>
    </defs>
    <g>
     <use xlink:href="#mad2517d114" x="46.475469" y="226.228185" style="fill: none; stroke: #000000; stroke-width: 0.8"/>
     <use xlink:href="#mad2517d114" x="46.475469" y="226.228185" style="fill: none; stroke: #000000; stroke-width: 0.8"/>
    </g>
    <defs>
     <path id="m11f832aace" d="M 0 0 
L -3.487043 -0.300881 
" style="stroke: #000000; stroke-width: 0.8"/>
    </defs>
    <g>
     <use xlink:href="#m11f832aace" x="46.475469" y="145.767948" style="fill: none; stroke: #000000; stroke-width: 0.8"/>
     <use xlink:href="#m11f832aace" x="46.475469" y="145.767948" style="fill: none; stroke: #000000; stroke-width: 0.8"/>
    </g>
    <defs>
     <path id="me1ee3d0b3a" d="M 0 0 
L -3.418611 -0.750401 
" style="stroke: #000000; stroke-width: 0.8"/>
    </defs>
    <g>
     <use xlink:href="#me1ee3d0b3a" x="46.475469" y="60.024372" style="fill: none; stroke: #000000; stroke-width: 0.8"/>
     <use xlink:href="#me1ee3d0b3a" x="46.475469" y="60.024372" style="fill: none; stroke: #000000; stroke-width: 0.8"/>
    </g>
    <g id="text_5">
     <!-- 60° -->
     <g transform="translate(23.522969 62.652653) scale(0.09 -0.09)">
      <use xlink:href="#DejaVuSans-36"/>
      <use xlink:href="#DejaVuSans-30" transform="translate(63.623047 0)"/>
      <use xlink:href="#DejaVuSans-b0" transform="translate(127.246094 0)"/>
     </g>
    </g>
    <g id="text_6">
     <!-- 45° -->
     <g transform="translate(23.522969 148.396229) scale(0.09 -0.09)">
      <defs>
       <path id="DejaVuSans-34" d="M 2419 4116 
L 825 1625 
L 2419 1625 
L 2419 4116 
z
M 2253 4666 
L 3047 4666 
L 3047 1625 
L 3713 1625 
L 3713 1100 
L 3047 1100 
L 3047 0 
L 2419 0 
L 2419 1100 
L 313 1100 
L 313 1709 
L 2253 4666 
z
" transform="scale(0.015625)"/>
       <path id="DejaVuSans-35" d="M 691 4666 
L 3169 4666 
L 3169 4134 
L 1269 4134 
L 1269 2991 
Q 1406 3038 1543 3061 
Q 1681 3084 1819 3084 
Q 2600 3084 3056 2656 
Q 3513 2228 3513 1497 
Q 3513 744 3044 326 
Q 2575 -91 1722 -91 
Q 1428 -91 1123 -41 
Q 819 9 494 109 
L 494 744 
Q 775 591 1075 516 
Q 1375 441 1709 441 
Q 2250 441 2565 725 
Q 2881 1009 2881 1497 
Q 2881 1984 2565 2268 
Q 2250 2553 1709 2553 
Q 1456 2553 1204 2497 
Q 953 2441 691 2322 
L 691 4666 
z
" transform="scale(0.015625)"/>
      </defs>
      <use xlink:href="#DejaVuSans-34"/>
      <use xlink:href="#DejaVuSans-35" transform="translate(63.623047 0)"/>
      <use xlink:href="#DejaVuSans-b0" transform="translate(127.246094 0)"/>
     </g>
    </g>
    <g id="text_7">
     <!-- 30° -->
     <g transform="translate(23.522969 228.856466) scale(0.09 -0.09)">
      <use xlink:href="#DejaVuSans-33"/>
      <use xlink:href="#DejaVuSans-30" transform="translate(63.623047 0)"/>
      <use xlink:href="#DejaVuSans-b0" transform="translate(127.246094 0)"/>
     </g>
    </g>
   </g>
   <g id="axis labels_1">
    <g id="text_8">
     <!-- Galactic $\ell$ -->
     <g transform="translate(198.745469 15.558281) scale(0.11 -0.11)">
      <defs>
       <path id="DejaVuSans-47" d="M 3809 666 
L 3809 1919 
L 2778 1919 
L 2778 2438 
L 4434 2438 
L 4434 434 
Q 4069 175 3628 42 
Q 3188 -91 2688 -91 
Q 1594 -91 976 548 
Q 359 1188 359 2328 
Q 359 3472 976 4111 
Q 1594 4750 2688 4750 
Q 3144 4750 3555 4637 
Q 3966 4525 4313 4306 
L 4313 3634 
Q 3963 3931 3569 4081 
Q 3175 4231 2741 4231 
Q 1884 4231 1454 3753 
Q 1025 3275 1025 2328 
Q 1025 1384 1454 906 
Q 1884 428 2741 428 
Q 3075 428 3337 486 
Q 3600 544 3809 666 
z
" transform="scale(0.015625)"/>
       <path id="DejaVuSans-61" d="M 2194 1759 
Q 1497 1759 1228 1600 
Q 959 1441 959 1056 
Q 959 750 1161 570 
Q 1363 391 1709 391 
Q 2188 391 2477 730 
Q 2766 1069 2766 1631 
L 2766 1759 
L 2194 1759 
z
M 3341 1997 
L 3341 0 
L 2766 0 
L 2766 531 
Q 2569 213 2275 61 
Q 1981 -91 1556 -91 
Q 1019 -91 701 211 
Q 384 513 384 1019 
Q 384 1609 779 1909 
Q 1175 2209 1959 2209 
L 2766 2209 
L 2766 2266 
Q 2766 2663 2505 2880 
Q 2244 3097 1772 3097 
Q 1472 3097 1187 3025 
Q 903 2953 641 2809 
L 641 3341 
Q 956 3463 1253 3523 
Q 1550 3584 1831 3584 
Q 2591 3584 2966 3190 
Q 3341 2797 3341 1997 
z
" transform="scale(0.015625)"/>
       <path id="DejaVuSans-6c" d="M 603 4863 
L 1178 4863 
L 1178 0 
L 603 0 
L 603 4863 
z
" transform="scale(0.015625)"/>
       <path id="DejaVuSans-63" d="M 3122 3366 
L 3122 2828 
Q 2878 2963 2633 3030 
Q 2388 3097 2138 3097 
Q 1578 3097 1268 2742 
Q 959 2388 959 1747 
Q 959 1106 1268 751 
Q 1578 397 2138 397 
Q 2388 397 2633 464 
Q 2878 531 3122 666 
L 3122 134 
Q 2881 22 2623 -34 
Q 2366 -91 2075 -91 
Q 1284 -91 818 406 
Q 353 903 353 1747 
Q 353 2603 823 3093 
Q 1294 3584 2113 3584 
Q 2378 3584 2631 3529 
Q 2884 3475 3122 3366 
z
" transform="scale(0.015625)"/>
       <path id="DejaVuSans-74" d="M 1172 4494 
L 1172 3500 
L 2356 3500 
L 2356 3053 
L 1172 3053 
L 1172 1153 
Q 1172 725 1289 603 
Q 1406 481 1766 481 
L 2356 481 
L 2356 0 
L 1766 0 
Q 1100 0 847 248 
Q 594 497 594 1153 
L 594 3053 
L 172 3053 
L 172 3500 
L 594 3500 
L 594 4494 
L 1172 4494 
z
" transform="scale(0.015625)"/>
       <path id="DejaVuSans-69" d="M 603 3500 
L 1178 3500 
L 1178 0 
L 603 0 
L 603 3500 
z
M 603 4863 
L 1178 4863 
L 1178 4134 
L 603 4134 
L 603 4863 
z
" transform="scale(0.015625)"/>
       <path id="DejaVuSans-20" transform="scale(0.015625)"/>
       <path id="DejaVuSans-Oblique-2113" d="M 950 838 
Q 1078 213 1350 213 
Q 1531 213 1766 572 
L 2181 572 
Q 1994 253 1775 88 
Q 1538 -91 1319 -91 
Q 831 -91 634 344 
L 400 0 
L -88 0 
Q 250 459 500 888 
Q 469 1131 469 1397 
Q 469 1872 566 2347 
Q 931 4131 1256 4497 
Q 1481 4750 1866 4750 
Q 2256 4750 2256 4209 
Q 2253 3966 2197 3675 
Q 1972 2484 950 838 
z
M 947 1656 
Q 1531 2744 1709 3613 
Q 1803 4072 1803 4191 
Q 1803 4406 1725 4406 
Q 1384 4134 1081 2516 
Q 997 2063 947 1656 
z
" transform="scale(0.015625)"/>
      </defs>
      <use xlink:href="#DejaVuSans-47" transform="translate(0 0.015625)"/>
      <use xlink:href="#DejaVuSans-61" transform="translate(77.490234 0.015625)"/>
      <use xlink:href="#DejaVuSans-6c" transform="translate(138.769531 0.015625)"/>
      <use xlink:href="#DejaVuSans-61" transform="translate(166.552734 0.015625)"/>
      <use xlink:href="#DejaVuSans-63" transform="translate(227.832031 0.015625)"/>
      <use xlink:href="#DejaVuSans-74" transform="translate(282.8125 0.015625)"/>
      <use xlink:href="#DejaVuSans-69" transform="translate(322.021484 0.015625)"/>
      <use xlink:href="#DejaVuSans-63" transform="translate(349.804688 0.015625)"/>
      <use xlink:href="#DejaVuSans-20" transform="translate(404.785156 0.015625)"/>
      <use xlink:href="#DejaVuSans-Oblique-2113" transform="translate(436.572266 0.015625)"/>
     </g>
    </g>
   </g>
   <g id="axis labels_2">
    <g id="text_9">
     <!-- Galactic $b$ -->
     <g transform="translate(15.558281 199.844281) rotate(-90) scale(0.11 -0.11)">
      <defs>
       <path id="DejaVuSans-Oblique-62" d="M 3169 2138 
Q 3169 2591 2961 2847 
Q 2753 3103 2388 3103 
Q 2122 3103 1889 2973 
Q 1656 2844 1484 2597 
Q 1303 2338 1198 1995 
Q 1094 1653 1094 1313 
Q 1094 881 1298 636 
Q 1503 391 1863 391 
Q 2134 391 2365 517 
Q 2597 644 2772 891 
Q 2950 1147 3059 1487 
Q 3169 1828 3169 2138 
z
M 1381 2969 
Q 1594 3256 1914 3420 
Q 2234 3584 2584 3584 
Q 3122 3584 3439 3221 
Q 3756 2859 3756 2241 
Q 3756 1734 3570 1259 
Q 3384 784 3041 416 
Q 2816 172 2522 40 
Q 2228 -91 1906 -91 
Q 1566 -91 1316 65 
Q 1066 222 909 531 
L 806 0 
L 231 0 
L 1178 4863 
L 1753 4863 
L 1381 2969 
z
" transform="scale(0.015625)"/>
      </defs>
      <use xlink:href="#DejaVuSans-47" transform="translate(0 0.015625)"/>
      <use xlink:href="#DejaVuSans-61" transform="translate(77.490234 0.015625)"/>
      <use xlink:href="#DejaVuSans-6c" transform="translate(138.769531 0.015625)"/>
      <use xlink:href="#DejaVuSans-61" transform="translate(166.552734 0.015625)"/>
      <use xlink:href="#DejaVuSans-63" transform="translate(227.832031 0.015625)"/>
      <use xlink:href="#DejaVuSans-74" transform="translate(282.8125 0.015625)"/>
      <use xlink:href="#DejaVuSans-69" transform="translate(322.021484 0.015625)"/>
      <use xlink:href="#DejaVuSans-63" transform="translate(349.804688 0.015625)"/>
      <use xlink:href="#DejaVuSans-20" transform="translate(404.785156 0.015625)"/>
      <use xlink:href="#DejaVuSans-Oblique-62" transform="translate(436.572266 0.015625)"/>
     </g>
    </g>
   </g>
   <g id="line2d_1">
    <path d="M 46.475469 305.345281 
L 403.595469 305.345281 
" style="fill: none; stroke: #000000; stroke-width: 0.8; stroke-linecap: square"/>
   </g>
   <g id="line2d_2">
    <path d="M 403.595469 305.345281 
L 403.595469 39.233281 
" style="fill: none; stroke: #000000; stroke-width: 0.8; stroke-linecap: square"/>
   </g>
   <g id="line2d_3">
    <path d="M 403.595469 39.233281 
L 46.475469 39.233281 
" style="fill: none; stroke: #000000; stroke-width: 0.8; stroke-linecap: square"/>
   </g>
   <g id="line2d_4">
    <path d="M 46.475469 39.233281 
L 46.475469 305.345281 
" style="fill: none; stroke: #000000; stroke-width: 0.8; stroke-linecap: square"/>
   </g>
   <g id="line2d_5">
    <path d="M 307.961452 51.630748 
L 312.918268 52.055825 
L 317.703515 52.663176 
L 322.316156 53.450334 
L 326.75618 54.413963 
L 331.024399 55.549924 
L 335.122239 56.853368 
L 339.05155 58.318836 
L 342.814435 59.940372 
L 346.413104 61.711629 
L 349.849762 63.625983 
L 353.126523 65.676628 
L 356.245361 67.856671 
L 359.20807 70.159207 
L 362.559485 73.074306 
L 365.690818 76.144324 
L 368.604161 79.35797 
L 371.301323 82.704352 
L 373.78389 86.17302 
L 376.053291 89.753988 
L 378.110863 93.437741 
L 379.957903 97.21523 
L 381.595716 101.077853 
L 383.02565 105.01744 
L 384.249131 109.026222 
L 385.267681 113.096809 
L 386.082934 117.222159 
L 386.696652 121.395555 
L 387.110724 125.610574 
L 387.327174 129.861066 
L 387.348155 134.141127 
L 387.175956 138.445081 
L 386.734121 143.489272 
L 386.036674 148.550182 
L 385.087866 153.619756 
L 383.892151 158.690223 
L 382.454167 163.754064 
L 380.778727 168.80399 
L 378.870803 173.832917 
L 376.735514 178.833948 
L 374.378115 183.800359 
L 371.803986 188.725585 
L 369.018621 193.603203 
L 366.027619 198.426927 
L 362.836678 203.1906 
L 359.451581 207.888181 
L 355.352691 213.168322 
L 351.016759 218.345739 
L 346.45279 223.411945 
L 341.669897 228.358635 
L 336.677301 233.177681 
L 331.484324 237.861133 
L 326.100383 242.401224 
L 320.534989 246.79037 
L 314.797748 251.021181 
L 308.898358 255.086466 
L 302.846611 258.979241 
L 296.652399 262.692741 
L 290.325716 266.220429 
L 283.876662 269.556008 
L 277.315454 272.693437 
L 270.652431 275.62694 
L 263.898062 278.351023 
L 257.062957 280.860487 
L 250.157882 283.150444 
L 243.19376 285.216331 
L 236.181693 287.053922 
L 229.13297 288.659347 
L 222.059076 290.029104 
L 214.97171 291.160071 
L 207.882791 292.04952 
L 200.80447 292.69513 
L 193.749143 293.094996 
L 186.729452 293.24764 
L 179.758299 293.152021 
L 172.848843 292.807539 
L 166.864228 292.301844 
L 160.946281 291.605678 
L 155.104312 290.719495 
L 149.347781 289.644017 
L 143.686294 288.38024 
L 138.129593 286.929428 
L 132.687557 285.293117 
L 127.370187 283.473112 
L 122.187599 281.471487 
L 117.150011 279.290582 
L 112.267731 276.933003 
L 107.551143 274.401618 
L 103.01069 271.699555 
L 98.656857 268.830197 
L 94.500151 265.797182 
L 90.551083 262.6044 
L 87.339386 259.743696 
L 84.294535 256.771392 
L 81.423081 253.690366 
L 78.731532 250.503622 
L 76.226337 247.214293 
L 73.913879 243.825636 
L 71.800456 240.341031 
L 69.892272 236.763983 
L 68.195418 233.098116 
L 66.715865 229.347174 
L 65.45944 225.51502 
L 64.431817 221.605634 
L 63.638498 217.623114 
L 63.084793 213.571672 
L 62.77581 209.455636 
L 62.716426 205.279448 
L 62.911277 201.047664 
L 63.364731 196.764952 
L 64.080871 192.436097 
L 65.063468 188.065993 
L 66.315961 183.659649 
L 67.84143 179.222189 
L 69.642572 174.758849 
L 71.721667 170.27498 
L 74.080554 165.77605 
L 76.720597 161.267643 
L 79.64265 156.755462 
L 82.847023 152.245327 
L 86.333441 147.743184 
L 90.101006 143.255102 
L 94.148149 138.787274 
L 98.472589 134.346029 
L 103.071276 129.937825 
L 107.940344 125.569263 
L 113.075051 121.247083 
L 118.469723 116.978177 
L 124.117686 112.769591 
L 130.011208 108.628533 
L 136.141427 104.562382 
L 142.498284 100.578694 
L 150.185881 96.045624 
L 158.146202 91.647979 
L 166.356362 87.398779 
L 174.790753 83.311448 
L 183.420968 79.399829 
L 192.215761 75.67819 
L 201.141084 72.161225 
L 210.160201 68.864029 
L 219.23394 65.802052 
L 228.321068 62.991014 
L 237.37885 60.446769 
L 246.363782 58.185113 
L 253.974281 56.483209 
L 261.472747 55.009662 
L 268.833738 53.773282 
L 276.033559 52.782103 
L 283.050786 52.043144 
L 289.866714 51.562162 
L 296.465695 51.343422 
L 302.835323 51.389493 
L 306.949676 51.567758 
L 306.949676 51.567758 
" clip-path="url(#pc41676ac5f)" style="fill: none; stroke: #1f77b4; stroke-width: 2; stroke-linecap: square"/>
   </g>
  </g>
 </g>
 <defs>
  <clipPath id="pc41676ac5f">
   <path d="M 46.475469 305.345281 
L 403.595469 305.345281 
L 403.595469 305.345281 
L 403.595469 39.233281 
L 403.595469 39.233281 
L 46.475469 39.233281 
L 46.475469 39.233281 
L 46.475469 305.345281 
"/>
  </clipPath>
 </defs>
</svg>
